<mxfile host="app.diagrams.net" modified="2023-11-07T16:53:21.742Z" agent="Mozilla/5.0 (X11; Linux x86_64; rv:109.0) Gecko/20100101 Firefox/116.0" etag="C3bdQGD8yqSAgXh0ZrI4" version="22.0.8" type="device">
  <diagram name="Page-1" id="2VsJh7osNM0lWl7xSRk6">
    <mxGraphModel dx="1598" dy="641" grid="0" gridSize="10" guides="1" tooltips="1" connect="1" arrows="1" fold="1" page="0" pageScale="1" pageWidth="850" pageHeight="1100" math="0" shadow="0">
      <root>
        <mxCell id="0" />
        <mxCell id="1" parent="0" />
        <mxCell id="giqBfh6rN-3T3riKz82c-4" style="edgeStyle=orthogonalEdgeStyle;rounded=0;orthogonalLoop=1;jettySize=auto;html=1;exitX=1;exitY=0.5;exitDx=0;exitDy=0;entryX=0;entryY=0.5;entryDx=0;entryDy=0;" parent="1" source="giqBfh6rN-3T3riKz82c-1" target="giqBfh6rN-3T3riKz82c-2" edge="1">
          <mxGeometry relative="1" as="geometry" />
        </mxCell>
        <mxCell id="giqBfh6rN-3T3riKz82c-1" value="Off" style="ellipse;whiteSpace=wrap;html=1;aspect=fixed;" parent="1" vertex="1">
          <mxGeometry x="330" y="190" width="80" height="80" as="geometry" />
        </mxCell>
        <mxCell id="giqBfh6rN-3T3riKz82c-5" style="edgeStyle=orthogonalEdgeStyle;rounded=0;orthogonalLoop=1;jettySize=auto;html=1;exitX=1;exitY=0.5;exitDx=0;exitDy=0;entryX=0;entryY=0.5;entryDx=0;entryDy=0;" parent="1" source="giqBfh6rN-3T3riKz82c-2" target="giqBfh6rN-3T3riKz82c-3" edge="1">
          <mxGeometry relative="1" as="geometry" />
        </mxCell>
        <mxCell id="giqBfh6rN-3T3riKz82c-2" value="Wait" style="ellipse;whiteSpace=wrap;html=1;aspect=fixed;" parent="1" vertex="1">
          <mxGeometry x="510" y="190" width="80" height="80" as="geometry" />
        </mxCell>
        <mxCell id="giqBfh6rN-3T3riKz82c-7" value="&amp;nbsp;" style="edgeStyle=orthogonalEdgeStyle;rounded=0;orthogonalLoop=1;jettySize=auto;html=1;exitX=0.5;exitY=1;exitDx=0;exitDy=0;entryX=0.5;entryY=1;entryDx=0;entryDy=0;" parent="1" source="giqBfh6rN-3T3riKz82c-3" target="giqBfh6rN-3T3riKz82c-2" edge="1">
          <mxGeometry relative="1" as="geometry">
            <Array as="points">
              <mxPoint x="730" y="290" />
              <mxPoint x="550" y="290" />
            </Array>
          </mxGeometry>
        </mxCell>
        <mxCell id="giqBfh6rN-3T3riKz82c-8" style="edgeStyle=orthogonalEdgeStyle;rounded=0;orthogonalLoop=1;jettySize=auto;html=1;exitX=0.5;exitY=1;exitDx=0;exitDy=0;entryX=0.5;entryY=1;entryDx=0;entryDy=0;" parent="1" source="giqBfh6rN-3T3riKz82c-3" target="giqBfh6rN-3T3riKz82c-1" edge="1">
          <mxGeometry relative="1" as="geometry">
            <Array as="points">
              <mxPoint x="730" y="300" />
              <mxPoint x="370" y="300" />
            </Array>
          </mxGeometry>
        </mxCell>
        <mxCell id="giqBfh6rN-3T3riKz82c-3" value="On" style="ellipse;whiteSpace=wrap;html=1;aspect=fixed;" parent="1" vertex="1">
          <mxGeometry x="690" y="190" width="80" height="80" as="geometry" />
        </mxCell>
        <mxCell id="giqBfh6rN-3T3riKz82c-9" value="&lt;div class=&quot;_1hl2r&quot;&gt;&lt;div class=&quot;HLjg0&quot;&gt;&lt;div tabindex=&quot;0&quot; aria-label=&quot;Quoted Message&quot; role=&quot;button&quot; class=&quot;_1EbXp&quot;&gt;&lt;div class=&quot;_3pMOs&quot;&gt;&lt;div class=&quot;_1JeGx&quot;&gt;&lt;div role=&quot;button&quot; class=&quot;_37DQv&quot;&gt;&lt;span class=&quot;quoted-mention _11JPr&quot; style=&quot;min-height: 0px;&quot; aria-label=&quot;&quot; dir=&quot;auto&quot;&gt;&lt;/span&gt;&lt;/div&gt;&lt;/div&gt;&lt;/div&gt;&lt;div class=&quot;jrEtJ&quot;&gt;&lt;div class=&quot;kknmh&quot;&gt;&lt;div class=&quot;g0rxnol2 ln8gz9je ppled2lx&quot;&gt;&lt;div class=&quot;lhggkp7q jnl3jror p357zi0d gndfcl4n ac2vgrno ln8gz9je ppled2lx&quot;&gt;&lt;div style=&quot;background-image: url(&amp;quot;data:image/jpeg;base64,/9j/4AAQSkZJRgABAQAAAQABAAD/2wBDABsSFBcUERsXFhceHBsgKEIrKCUlKFE6PTBCYFVlZF9VXVtqeJmBanGQc1tdhbWGkJ6jq62rZ4C8ybqmx5moq6T/2wBDARweHigjKE4rK06kbl1upKSkpKSkpKSkpKSkpKSkpKSkpKSkpKSkpKSkpKSkpKSkpKSkpKSkpKSkpKSkpKSkpKT/wgARCABIACkDASIAAhEBAxEB/8QAGgAAAgMBAQAAAAAAAAAAAAAABAUAAgMBBv/EABcBAAMBAAAAAAAAAAAAAAAAAAACAwH/2gAMAwEAAhADEAAAAGvcL4dnKBiG2Vxu1iYqsRdgjNGotmS75XYteusMhtsfhy67KzSOgUAtctB8Tga0l6dZJNlmUjlMJHT/xAAbEQADAAIDAAAAAAAAAAAAAAAAAREQMQISIf/aAAgBAgEBPwDHJelKlvHYtELCFsSRD//EABkRAAIDAQAAAAAAAAAAAAAAAAABEBEhAv/aAAgBAwEBPwCOHkJWsNRQsGXUOG8j/8QAJhAAAQQBAwUAAgMAAAAAAAAAAQACAxEEEiExBRMiQVEQFSMzYf/aAAgBAQABPwAPWtOkWPN/MAfa6lFoyLHDt/xqTWucnR1yURpIIWezu4oeOWqgg1reUZ2MF2uo5z5pwyJ3iPi6dLI5rmSXtxaxyJI3RlHpUlmpE3MlkcbNkelBkCRumRoGrZHFljyn9sWG+1juINuHksOUGbndWpGGDLLfSaQJAfSkc127fm6k8KP0Jk5ZO1wHC/Yt/wBXVcYd0SDakRwQVrLWUE09yIgncCwonee1WfqIkv8AoWdT40GnU4egnWdgFLE9kILNjW6gfVE8oZppTNPCnaGMOyc+jYTZy6gVLHpl8eCLWtSNBXUfBpIFgpx+rvgWpcxxcC0UQKXfd9X//gADAP/Z&amp;quot;);&quot; class=&quot;lhggkp7q ln8gz9je ppled2lx t3g6t33p qnwaluaf&quot;&gt;&lt;/div&gt;&lt;/div&gt;&lt;div class=&quot;lhggkp7q jnl3jror p357zi0d gndfcl4n ac2vgrno ln8gz9je ppled2lx&quot;&gt;&lt;div style=&quot;background-image: url(&amp;quot;blob:https://web.whatsapp.com/bfc90d6a-2595-4bfe-bc15-0e29cce1a486&amp;quot;);&quot; class=&quot;lhggkp7q ln8gz9je ppled2lx t3g6t33p qnwaluaf&quot;&gt;&lt;/div&gt;&lt;/div&gt;&lt;/div&gt;&lt;/div&gt;&lt;/div&gt;&lt;/div&gt;&lt;/div&gt;&lt;/div&gt;&lt;div class=&quot;_21Ahp&quot;&gt;&lt;span class=&quot;_11JPr selectable-text copyable-text&quot; style=&quot;min-height: 0px;&quot; aria-label=&quot;&quot; dir=&quot;ltr&quot;&gt;&lt;span&gt;&lt;/span&gt;&lt;/span&gt;&lt;/div&gt;" style="text;whiteSpace=wrap;html=1;" parent="1" vertex="1">
          <mxGeometry x="760" width="30" height="20" as="geometry" />
        </mxCell>
        <mxCell id="PCL4FF7wPJ_mp2fp3k7Y-11" style="edgeStyle=orthogonalEdgeStyle;rounded=0;orthogonalLoop=1;jettySize=auto;html=1;exitX=0.5;exitY=0;exitDx=0;exitDy=0;" edge="1" parent="1" source="PCL4FF7wPJ_mp2fp3k7Y-5">
          <mxGeometry relative="1" as="geometry">
            <mxPoint x="504.85714285714266" y="570" as="targetPoint" />
          </mxGeometry>
        </mxCell>
        <mxCell id="PCL4FF7wPJ_mp2fp3k7Y-5" value="&lt;p style=&quot;margin:0px;margin-top:4px;text-align:center;&quot;&gt;&lt;b&gt;On&lt;/b&gt;&lt;/p&gt;&lt;hr size=&quot;1&quot;&gt;&lt;p style=&quot;margin:0px;margin-left:4px;&quot;&gt;&amp;nbsp;&lt;br&gt;&lt;/p&gt;&lt;hr size=&quot;1&quot;&gt;&lt;p style=&quot;margin:0px;margin-left:4px;&quot;&gt;&lt;br&gt;&lt;/p&gt;" style="verticalAlign=top;align=left;overflow=fill;fontSize=12;fontFamily=Helvetica;html=1;whiteSpace=wrap;" vertex="1" parent="1">
          <mxGeometry x="425" y="660" width="160" height="90" as="geometry" />
        </mxCell>
        <mxCell id="PCL4FF7wPJ_mp2fp3k7Y-7" value="&lt;p style=&quot;margin:0px;margin-top:4px;text-align:center;&quot;&gt;&lt;b&gt;States&lt;/b&gt;&lt;/p&gt;&lt;hr size=&quot;1&quot;&gt;&lt;p style=&quot;margin:0px;margin-left:4px;&quot;&gt;+ state_name&lt;/p&gt;&lt;p style=&quot;margin:0px;margin-left:4px;&quot;&gt;+ next_state&lt;br&gt;&lt;/p&gt;&lt;hr size=&quot;1&quot;&gt;&lt;p style=&quot;margin:0px;margin-left:4px;&quot;&gt;+ read_PIR()&lt;br&gt;&lt;/p&gt;" style="verticalAlign=top;align=left;overflow=fill;fontSize=12;fontFamily=Helvetica;html=1;whiteSpace=wrap;" vertex="1" parent="1">
          <mxGeometry x="425" y="430" width="160" height="140" as="geometry" />
        </mxCell>
        <mxCell id="PCL4FF7wPJ_mp2fp3k7Y-10" style="edgeStyle=orthogonalEdgeStyle;rounded=0;orthogonalLoop=1;jettySize=auto;html=1;exitX=0.5;exitY=0;exitDx=0;exitDy=0;entryX=0.5;entryY=1;entryDx=0;entryDy=0;" edge="1" parent="1" source="PCL4FF7wPJ_mp2fp3k7Y-8" target="PCL4FF7wPJ_mp2fp3k7Y-7">
          <mxGeometry relative="1" as="geometry" />
        </mxCell>
        <mxCell id="PCL4FF7wPJ_mp2fp3k7Y-8" value="&lt;p style=&quot;margin:0px;margin-top:4px;text-align:center;&quot;&gt;&lt;b&gt;Off&lt;/b&gt;&lt;/p&gt;&lt;hr size=&quot;1&quot;&gt;&lt;p style=&quot;margin:0px;margin-left:4px;&quot;&gt;&lt;br&gt;&lt;/p&gt;&lt;hr size=&quot;1&quot;&gt;" style="verticalAlign=top;align=left;overflow=fill;fontSize=12;fontFamily=Helvetica;html=1;whiteSpace=wrap;" vertex="1" parent="1">
          <mxGeometry x="220" y="660" width="160" height="90" as="geometry" />
        </mxCell>
        <mxCell id="PCL4FF7wPJ_mp2fp3k7Y-12" style="edgeStyle=orthogonalEdgeStyle;rounded=0;orthogonalLoop=1;jettySize=auto;html=1;exitX=0.5;exitY=0;exitDx=0;exitDy=0;entryX=0.5;entryY=1;entryDx=0;entryDy=0;" edge="1" parent="1" source="PCL4FF7wPJ_mp2fp3k7Y-9" target="PCL4FF7wPJ_mp2fp3k7Y-7">
          <mxGeometry relative="1" as="geometry" />
        </mxCell>
        <mxCell id="PCL4FF7wPJ_mp2fp3k7Y-9" value="&lt;p style=&quot;margin:0px;margin-top:4px;text-align:center;&quot;&gt;&lt;b&gt;Standby&lt;/b&gt;&lt;/p&gt;&lt;hr size=&quot;1&quot;&gt;&lt;p style=&quot;margin:0px;margin-left:4px;&quot;&gt;&lt;br&gt;&lt;/p&gt;&lt;hr size=&quot;1&quot;&gt;&lt;p style=&quot;margin:0px;margin-left:4px;&quot;&gt;+alert();&lt;br&gt;&lt;/p&gt;" style="verticalAlign=top;align=left;overflow=fill;fontSize=12;fontFamily=Helvetica;html=1;whiteSpace=wrap;" vertex="1" parent="1">
          <mxGeometry x="630" y="660" width="160" height="90" as="geometry" />
        </mxCell>
        <mxCell id="PCL4FF7wPJ_mp2fp3k7Y-13" value="&lt;p style=&quot;margin:0px;margin-top:4px;text-align:center;&quot;&gt;&lt;b&gt;PIR&lt;/b&gt;&lt;/p&gt;&lt;hr size=&quot;1&quot;&gt;&lt;p style=&quot;margin:0px;margin-left:4px;&quot;&gt;+output&lt;br&gt;&lt;/p&gt;&lt;hr size=&quot;1&quot;&gt;" style="verticalAlign=top;align=left;overflow=fill;fontSize=12;fontFamily=Helvetica;html=1;whiteSpace=wrap;" vertex="1" parent="1">
          <mxGeometry x="630" y="860" width="160" height="90" as="geometry" />
        </mxCell>
        <mxCell id="PCL4FF7wPJ_mp2fp3k7Y-14" value="1" style="endArrow=open;html=1;endSize=12;startArrow=diamondThin;startSize=14;startFill=0;edgeStyle=orthogonalEdgeStyle;align=left;verticalAlign=bottom;rounded=0;entryX=0.5;entryY=0;entryDx=0;entryDy=0;exitX=0.5;exitY=1;exitDx=0;exitDy=0;" edge="1" parent="1" source="PCL4FF7wPJ_mp2fp3k7Y-9" target="PCL4FF7wPJ_mp2fp3k7Y-13">
          <mxGeometry x="-1" y="3" relative="1" as="geometry">
            <mxPoint x="640" y="720" as="sourcePoint" />
            <mxPoint x="800" y="720" as="targetPoint" />
          </mxGeometry>
        </mxCell>
      </root>
    </mxGraphModel>
  </diagram>
</mxfile>
